<?xml version="1.0" standalone="no"?>
<!DOCTYPE svg PUBLIC "-//W3C//DTD SVG 20010904//EN"
 "http://www.w3.org/TR/2001/REC-SVG-20010904/DTD/svg10.dtd">
<svg version="1.0" xmlns="http://www.w3.org/2000/svg"
 width="609.000000pt" height="213.000000pt" viewBox="0 0 609.000000 213.000000"
 preserveAspectRatio="xMidYMid meet">

<g transform="translate(0.000000,213.000000) scale(0.100000,-0.100000)"
fill="#000000" stroke="none">
<path d="M2364 1365 l-38 -65 -74 0 c-40 0 -82 -4 -92 -10 -19 -10 -120 -178
-120 -199 0 -8 41 -11 148 -9 l147 3 63 105 c34 58 65 115 68 127 6 22 -39
113 -56 113 -4 0 -25 -29 -46 -65z m-64 -101 c0 -12 -81 -153 -91 -160 -6 -3
-15 -2 -19 2 -12 12 77 164 95 164 8 0 15 -3 15 -6z"/>
<path d="M3514 1348 c-26 -46 -69 -120 -96 -166 -26 -45 -48 -87 -48 -93 0 -6
25 -9 62 -7 l62 3 68 115 c37 63 68 120 68 127 0 15 -52 103 -61 103 -4 0 -29
-37 -55 -82z"/>
<path d="M1205 1345 c-24 -23 -25 -28 -25 -178 0 -149 -1 -156 -35 -257 -40
-117 -41 -132 -19 -154 13 -14 60 -16 354 -16 294 0 341 2 354 16 21 21 21 22
-19 148 -33 103 -35 117 -35 246 0 143 -10 194 -40 210 -11 6 -123 10 -265 10
l-246 0 -24 -25z m525 -175 l0 -150 -250 0 -250 0 0 150 0 150 250 0 250 0 0
-150z m-440 -230 c0 -5 -9 -10 -20 -10 -11 0 -20 5 -20 10 0 6 9 10 20 10 11
0 20 -4 20 -10z m60 0 c0 -5 -9 -10 -20 -10 -11 0 -20 5 -20 10 0 6 9 10 20
10 11 0 20 -4 20 -10z m60 0 c0 -5 -9 -10 -20 -10 -11 0 -20 5 -20 10 0 6 9
10 20 10 11 0 20 -4 20 -10z m50 0 c0 -5 -9 -10 -20 -10 -11 0 -20 5 -20 10 0
6 9 10 20 10 11 0 20 -4 20 -10z m60 0 c0 -5 -9 -10 -20 -10 -11 0 -20 5 -20
10 0 6 9 10 20 10 11 0 20 -4 20 -10z m60 0 c0 -5 -9 -10 -20 -10 -11 0 -20 5
-20 10 0 6 9 10 20 10 11 0 20 -4 20 -10z m60 0 c0 -5 -9 -10 -20 -10 -11 0
-20 5 -20 10 0 6 9 10 20 10 11 0 20 -4 20 -10z m50 0 c0 -5 -9 -10 -20 -10
-11 0 -20 5 -20 10 0 6 9 10 20 10 11 0 20 -4 20 -10z m-420 -40 c0 -5 -9 -10
-20 -10 -11 0 -20 5 -20 10 0 6 9 10 20 10 11 0 20 -4 20 -10z m65 0 c4 -6 -5
-10 -20 -10 -15 0 -24 4 -20 10 3 6 12 10 20 10 8 0 17 -4 20 -10z m60 0 c4
-6 -5 -10 -20 -10 -15 0 -24 4 -20 10 3 6 12 10 20 10 8 0 17 -4 20 -10z m70
0 c4 -6 -5 -10 -19 -10 -14 0 -26 5 -26 10 0 6 9 10 19 10 11 0 23 -4 26 -10z
m60 0 c4 -6 -5 -10 -20 -10 -15 0 -24 4 -20 10 3 6 12 10 20 10 8 0 17 -4 20
-10z m65 0 c0 -5 -9 -10 -20 -10 -11 0 -20 5 -20 10 0 6 9 10 20 10 11 0 20
-4 20 -10z m65 0 c4 -6 -5 -10 -20 -10 -15 0 -24 4 -20 10 3 6 12 10 20 10 8
0 17 -4 20 -10z m60 0 c4 -6 -5 -10 -20 -10 -15 0 -24 4 -20 10 3 6 12 10 20
10 8 0 17 -4 20 -10z m-468 -46 c5 -15 -28 -27 -40 -15 -5 5 -6 14 -2 21 8 13
37 9 42 -6z m71 -1 c5 -17 -26 -29 -40 -15 -6 6 -7 15 -3 22 9 14 37 9 43 -7z
m276 11 c13 -5 14 -9 5 -20 -8 -10 -40 -14 -123 -14 -111 0 -145 8 -132 29 8
12 221 16 250 5z m74 -3 c10 -6 10 -10 -3 -21 -18 -15 -42 0 -31 19 8 13 16
14 34 2z m79 -7 c5 -15 -28 -27 -40 -15 -5 5 -6 14 -2 21 8 13 37 9 42 -6z"/>
<path d="M2495 1290 c-18 -7 -125 -179 -125 -201 0 -5 65 -9 144 -9 144 0 145
0 165 26 34 44 28 54 -33 54 -49 0 -58 -4 -85 -32 -32 -34 -47 -33 -36 1 13
42 33 51 114 51 62 0 81 4 93 18 24 27 49 82 43 92 -7 12 -252 12 -280 0z
m129 -51 c-15 -29 -39 -47 -50 -36 -8 8 23 64 38 70 24 8 28 -4 12 -34z"/>
<path d="M2826 1291 c-10 -4 -29 -27 -42 -51 -25 -47 -25 -46 23 -122 l23 -38
78 0 c42 0 82 4 88 8 20 13 116 191 109 202 -10 15 -88 12 -112 -5 -13 -9 -39
-46 -59 -83 -40 -72 -62 -102 -76 -102 -16 0 -7 26 37 104 35 60 43 81 33 88
-16 10 -76 9 -102 -1z"/>
<path d="M3151 1283 c-25 -21 -121 -184 -114 -195 2 -5 69 -8 149 -8 l144 0
20 32 c10 17 17 35 14 40 -3 4 -30 8 -59 8 -49 0 -57 -3 -77 -30 -23 -31 -48
-40 -48 -16 0 7 9 25 21 40 19 24 26 26 104 26 l83 0 31 52 c21 38 26 55 18
60 -7 4 -69 8 -138 8 -106 0 -130 -3 -148 -17z m135 -48 c-18 -27 -43 -42 -53
-32 -3 4 7 23 22 43 19 24 31 32 38 25 7 -7 5 -18 -7 -36z"/>
<path d="M3649 1290 c-17 -10 -119 -182 -119 -200 0 -6 54 -10 143 -10 125 0
146 2 159 18 29 34 109 183 103 192 -8 13 -265 13 -286 0z m120 -77 c-48 -85
-69 -113 -85 -113 -20 0 -19 1 32 90 33 57 52 80 66 80 18 0 17 -5 -13 -57z"/>
<path d="M3988 1294 c-17 -5 -148 -224 -148 -246 0 -17 50 -98 59 -98 5 0 27
29 50 65 l40 65 78 0 c43 0 83 4 89 8 18 13 117 192 110 200 -9 8 -252 13
-278 6z m97 -112 c-26 -45 -53 -82 -61 -82 -8 0 -14 5 -14 11 0 16 59 119 83
147 41 45 36 3 -8 -76z"/>
<path d="M4322 1293 c-14 -5 -122 -184 -122 -202 0 -7 46 -11 144 -11 144 0
145 0 165 26 35 44 28 54 -35 54 -49 0 -59 -3 -82 -30 -15 -16 -30 -30 -34
-30 -13 0 -8 34 8 55 12 16 30 21 102 25 l86 5 29 47 c16 26 26 51 22 57 -6
11 -257 15 -283 4z m124 -68 c-14 -22 -46 -35 -46 -20 0 15 31 64 42 68 20 6
22 -21 4 -48z"/>
<path d="M4652 1283 c-25 -22 -122 -185 -115 -195 2 -5 29 -8 59 -8 63 0 65 2
127 110 23 42 50 76 60 78 15 3 17 -1 11 -22 -6 -26 -6 -26 55 -26 58 0 62 2
81 32 15 24 16 34 7 40 -7 4 -69 8 -138 8 -106 0 -130 -3 -147 -17z"/>
<path d="M2056 837 c-12 -9 -17 -23 -14 -47 2 -29 7 -35 28 -38 68 -7 90 -14
90 -27 0 -18 -70 -21 -87 -4 -18 18 -42 4 -36 -21 5 -19 11 -21 82 -18 l76 3
3 34 c4 43 -7 54 -65 61 -27 3 -48 11 -51 19 -4 12 6 13 57 8 50 -5 61 -4 61
8 0 8 -9 19 -19 25 -27 14 -104 13 -125 -3z"/>
<path d="M2237 844 c-4 -4 -7 -43 -7 -86 0 -71 2 -78 19 -78 16 0 20 8 23 43
3 38 6 42 31 45 26 3 27 2 27 -42 0 -40 3 -46 20 -46 19 0 21 5 18 58 l-3 57
-47 3 c-39 3 -47 7 -50 24 -3 22 -19 33 -31 22z"/>
<path d="M2567 843 c-4 -3 -7 -42 -7 -85 0 -71 2 -78 19 -78 16 0 20 8 23 43
3 38 6 42 31 45 26 3 27 2 27 -42 0 -40 3 -46 20 -46 19 0 21 5 18 58 l-3 57
-47 3 c-43 3 -48 5 -48 28 0 23 -18 32 -33 17z"/>
<path d="M2737 843 c-13 -12 -7 -23 13 -23 11 0 20 7 20 15 0 15 -21 21 -33 8z"/>
<path d="M2907 843 c-4 -3 -7 -14 -7 -24 0 -14 -10 -19 -47 -21 l-48 -3 0 -55
0 -55 68 -1 67 -1 0 83 c0 63 -3 84 -13 84 -8 0 -17 -3 -20 -7z m-7 -103 c0
-27 -3 -30 -30 -30 -27 0 -30 3 -30 30 0 27 3 30 30 30 27 0 30 -3 30 -30z"/>
<path d="M3047 843 c-4 -3 -7 -42 -7 -85 0 -71 2 -78 20 -78 17 0 20 7 20 48
l1 47 27 -33 c15 -18 32 -32 37 -32 6 0 20 15 30 33 l20 32 3 -47 c3 -40 6
-48 23 -48 17 0 19 7 19 79 0 107 -20 115 -73 29 -10 -16 -21 -28 -25 -28 -4
0 -20 20 -35 45 -27 42 -45 54 -60 38z"/>
<path d="M3440 765 c0 -69 3 -85 15 -85 8 0 15 9 15 20 0 11 4 20 8 20 5 0 17
-9 27 -20 10 -11 29 -20 43 -20 l26 0 -29 30 -29 30 29 30 29 30 -26 0 c-14 0
-33 -9 -43 -20 -27 -30 -35 -25 -35 25 0 33 -4 45 -15 45 -12 0 -15 -16 -15
-85z"/>
<path d="M3607 844 c-4 -4 -7 -43 -7 -86 0 -71 2 -78 20 -78 17 0 20 7 20 45
0 43 1 45 30 45 29 0 30 -2 30 -45 0 -39 3 -45 20 -45 19 0 21 5 18 58 l-3 57
-45 0 c-40 0 -46 3 -50 24 -5 25 -21 37 -33 25z"/>
<path d="M3777 812 c-19 -21 -22 -42 -7 -42 6 0 10 -13 10 -29 0 -50 9 -61 51
-61 28 0 39 4 39 15 0 9 -9 15 -25 15 -21 0 -25 5 -25 29 0 23 5 30 22 33 29
4 36 28 9 28 -12 0 -24 7 -27 15 -8 20 -27 19 -47 -3z"/>
<path d="M2403 784 c-3 -9 0 -20 8 -25 10 -6 10 -9 2 -9 -8 0 -13 -14 -13 -35
l0 -35 70 1 70 1 0 47 c0 26 -5 52 -12 59 -19 19 -117 16 -125 -4z m95 -21 c2
-9 -7 -13 -27 -13 -30 0 -39 9 -24 24 11 10 46 3 51 -11z m2 -43 c0 -12 -45
-24 -60 -15 -5 3 -8 11 -5 16 8 12 65 12 65 -1z"/>
<path d="M2730 740 c0 -53 2 -60 20 -60 18 0 20 7 20 60 0 53 -2 60 -20 60
-18 0 -20 -7 -20 -60z"/>
<path d="M3272 743 l3 -58 68 -2 67 -2 0 60 c0 52 -2 59 -19 59 -16 0 -20 -8
-23 -42 -3 -40 -5 -43 -33 -43 -28 0 -30 3 -33 43 -2 29 -8 42 -18 42 -12 0
-14 -12 -12 -57z"/>
<path d="M3897 786 c-4 -9 -2 -18 4 -22 7 -4 6 -10 -1 -19 -6 -8 -10 -24 -8
-37 3 -21 8 -23 71 -24 l68 -1 -3 56 -3 56 -61 3 c-48 2 -63 -1 -67 -12z m91
-23 c2 -9 -7 -13 -27 -13 -30 0 -39 9 -24 24 11 10 46 3 51 -11z m2 -42 c0
-10 -24 -21 -46 -21 -8 0 -14 7 -14 15 0 10 10 15 30 15 17 0 30 -4 30 -9z"/>
<path d="M4060 739 c0 -52 2 -59 19 -59 16 0 20 8 23 43 2 35 7 43 26 45 12 2
22 10 22 17 0 10 -13 14 -45 13 l-45 -1 0 -58z"/>
</g>
</svg>
